<svg width="221" height="221" viewBox="0 0 221 221" fill="none" xmlns="http://www.w3.org/2000/svg">
    <mask id="mask0_677_36" style="mask-type:alpha" maskUnits="userSpaceOnUse" x="0" y="0" width="221" height="221">
        <rect width="221" height="221" rx="20" fill="#008F45"/>
    </mask>
    <g mask="url(#mask0_677_36)">
        <rect x="-39" y="-39" width="329" height="329" rx="20" fill="#008F45"/>
        <rect x="55" y="59" width="66" height="71" rx="5" fill="#005E2D"/>
        <path d="M124.5 55.5C123.833 56.8333 120.4 59 116 59L115.5 130C116.5 130.167 118 131 117 134L127.5 131.5L125 78.5L124.5 55.5Z" fill="#005E2D"/>
        <path d="M285 82C193 79.5 131.029 131.5 131.029 131.5M131.029 131.5C99.8058 154.7 12.6667 160.167 -27 160M131.029 131.5C126.853 105.667 123.5 43.2 143.5 0M131.029 131.5C143.406 202.7 136.186 253.167 131.029 269.5M110.5 70.5V96.5V118.5M88.5 70.5V118.5M65.5 70.5V118.5" stroke="white" stroke-width="10" stroke-linecap="round"/>
    </g>
</svg>
