<svg width="221" height="221" viewBox="0 0 221 221" fill="none" xmlns="http://www.w3.org/2000/svg">
    <mask id="mask0_677_36" style="mask-type:alpha" maskUnits="userSpaceOnUse" x="0" y="0" width="221" height="221">
        <rect width="221" height="221" rx="20" fill="#000"/>
    </mask>
    <g mask="url(#mask0_677_36)">
        <path d="M116 59C118.761 59 121 61.2386 121 64V125C121 127.761 118.761 130 116 130H60C57.2386 130 55 127.761 55 125V64C55 61.2386 57.2386 59 60 59H116ZM65.5 65.5C62.7386 65.5 60.5 67.7386 60.5 70.5V118.5C60.5 121.261 62.7386 123.5 65.5 123.5C68.2614 123.5 70.5 121.261 70.5 118.5V70.5C70.5 67.7386 68.2614 65.5 65.5 65.5ZM88.5 65.5C85.7386 65.5 83.5 67.7386 83.5 70.5V118.5C83.5 121.261 85.7386 123.5 88.5 123.5C91.2614 123.5 93.5 121.261 93.5 118.5V70.5C93.5 67.7386 91.2614 65.5 88.5 65.5ZM110.5 65.5C107.739 65.5 105.5 67.7386 105.5 70.5V118.5C105.5 121.261 107.739 123.5 110.5 123.5C113.261 123.5 115.5 121.261 115.5 118.5V70.5C115.5 67.7386 113.261 65.5 110.5 65.5Z" fill="#000"/>
        <path d="M124.5 55.5C123.833 56.8333 120.4 59 116 59L115.5 130C116.5 130.167 118 131 117 134L127.5 131.5L125 78.5L124.5 55.5Z" fill="#000"/>
        <path d="M285 82C193 79.5 131.029 131.5 131.029 131.5M131.029 131.5C99.8058 154.7 12.6667 160.167 -27 160M131.029 131.5C126.853 105.667 123.5 43.2 143.5 0M131.029 131.5C143.406 202.7 136.186 253.167 131.029 269.5" stroke="black" stroke-width="10" stroke-linecap="round"/>
    </g>
</svg>
